<svg width="109" height="30" viewBox="0 0 109 30" fill="none" xmlns="http://www.w3.org/2000/svg">
<path d="M1.17188 5.81818H7.31534L11.5412 16.1165H11.7543L15.9801 5.81818H22.1236V24H17.294V13.4886H17.152L13.1037 23.858H10.1918L6.14347 13.4176H6.00142V24H1.17188V5.81818ZM28.3336 24.2131C27.4636 24.2131 26.6942 24.071 26.0254 23.7869C25.3625 23.4969 24.8417 23.0589 24.4629 22.473C24.0841 21.8871 23.8947 21.1413 23.8947 20.2358C23.8947 19.4901 24.022 18.8538 24.2765 18.3271C24.531 17.7944 24.8861 17.3594 25.3418 17.022C25.7975 16.6847 26.3272 16.4272 26.9309 16.2496C27.5405 16.0721 28.1975 15.9567 28.9018 15.9034C29.6653 15.8442 30.2779 15.7732 30.7395 15.6903C31.2071 15.6016 31.5444 15.4802 31.7516 15.3263C31.9587 15.1665 32.0623 14.9564 32.0623 14.696V14.6605C32.0623 14.3054 31.9262 14.0331 31.6539 13.8438C31.3817 13.6544 31.0325 13.5597 30.6064 13.5597C30.1388 13.5597 29.757 13.6632 29.4611 13.8704C29.1711 14.0716 28.9965 14.3823 28.9373 14.8026H24.4274C24.4866 13.974 24.7499 13.2105 25.2175 12.5121C25.691 11.8078 26.3805 11.2455 27.286 10.8253C28.1916 10.3991 29.322 10.1861 30.6774 10.1861C31.6539 10.1861 32.5299 10.3015 33.3052 10.5323C34.0806 10.7572 34.7405 11.0739 35.285 11.4822C35.8295 11.8847 36.2438 12.3582 36.5279 12.9027C36.8179 13.4413 36.9629 14.0272 36.9629 14.6605V24H32.3819V22.0824H32.2754C32.0031 22.5914 31.6717 23.0027 31.2811 23.3164C30.8964 23.6301 30.4554 23.858 29.9583 24C29.467 24.142 28.9255 24.2131 28.3336 24.2131ZM29.9316 21.1236C30.3045 21.1236 30.6537 21.0466 30.9792 20.8928C31.3107 20.7389 31.58 20.5169 31.7871 20.2269C31.9943 19.9369 32.0978 19.5848 32.0978 19.1705V18.0341C31.9676 18.0874 31.8285 18.1377 31.6806 18.185C31.5385 18.2324 31.3846 18.2768 31.2189 18.3182C31.0591 18.3596 30.8875 18.3981 30.704 18.4336C30.5265 18.4691 30.34 18.5017 30.1447 18.5312C29.7659 18.5904 29.4552 18.6881 29.2125 18.8242C28.9758 18.9544 28.7982 19.1172 28.6799 19.3125C28.5674 19.5019 28.5112 19.715 28.5112 19.9517C28.5112 20.3305 28.6444 20.6205 28.9107 20.8217C29.177 21.023 29.5173 21.1236 29.9316 21.1236ZM45.874 24.2486C44.3944 24.2486 43.1278 23.9556 42.0743 23.3697C41.0208 22.7778 40.2129 21.9551 39.6507 20.9016C39.0884 19.8422 38.8073 18.6141 38.8073 17.2173C38.8073 15.8205 39.0884 14.5954 39.6507 13.5419C40.2129 12.4825 41.0208 11.6598 42.0743 11.0739C43.1278 10.482 44.3944 10.1861 45.874 10.1861C47.2116 10.1861 48.3687 10.4287 49.3453 10.9141C50.3277 11.3935 51.0883 12.0741 51.6269 12.956C52.1655 13.8319 52.4377 14.8617 52.4436 16.0455H47.8982C47.8331 15.3293 47.6259 14.7848 47.2767 14.4119C46.9334 14.0331 46.4896 13.8438 45.945 13.8438C45.5189 13.8438 45.146 13.968 44.8264 14.2166C44.5068 14.4593 44.2583 14.8292 44.0807 15.3263C43.9031 15.8176 43.8144 16.4361 43.8144 17.1818C43.8144 17.9276 43.9031 18.549 44.0807 19.0462C44.2583 19.5374 44.5068 19.9073 44.8264 20.1559C45.146 20.3986 45.5189 20.5199 45.945 20.5199C46.3061 20.5199 46.6257 20.437 46.9039 20.2713C47.182 20.0997 47.4069 19.8511 47.5786 19.5256C47.7561 19.1941 47.8627 18.7917 47.8982 18.3182H52.4436C52.4259 19.5196 52.1507 20.5672 51.618 21.4609C51.0853 22.3487 50.3307 23.0353 49.3541 23.5206C48.3835 24.0059 47.2235 24.2486 45.874 24.2486Z" fill="#E4022D"/>
<path d="M78.0125 24.2486C76.5329 24.2486 75.2663 23.9556 74.2128 23.3697C73.1593 22.7778 72.3514 21.9551 71.7891 20.9016C71.2269 19.8422 70.9457 18.6141 70.9457 17.2173C70.9457 15.8205 71.2269 14.5954 71.7891 13.5419C72.3514 12.4825 73.1593 11.6598 74.2128 11.0739C75.2663 10.482 76.5329 10.1861 78.0125 10.1861C79.3501 10.1861 80.5072 10.4287 81.4837 10.9141C82.4662 11.3935 83.2267 12.0741 83.7653 12.956C84.3039 13.8319 84.5762 14.8617 84.5821 16.0455H80.0366C79.9715 15.3293 79.7644 14.7848 79.4152 14.4119C79.0719 14.0331 78.628 13.8438 78.0835 13.8438C77.6574 13.8438 77.2845 13.968 76.9649 14.2166C76.6453 14.4593 76.3967 14.8292 76.2192 15.3263C76.0416 15.8176 75.9528 16.4361 75.9528 17.1818C75.9528 17.9276 76.0416 18.549 76.2192 19.0462C76.3967 19.5374 76.6453 19.9073 76.9649 20.1559C77.2845 20.3986 77.6574 20.5199 78.0835 20.5199C78.4446 20.5199 78.7642 20.437 79.0423 20.2713C79.3205 20.0997 79.5454 19.8511 79.717 19.5256C79.8946 19.1941 80.0011 18.7917 80.0366 18.3182H84.5821C84.5643 19.5196 84.2891 20.5672 83.7565 21.4609C83.2238 22.3487 82.4692 23.0353 81.4926 23.5206C80.522 24.0059 79.3619 24.2486 78.0125 24.2486ZM90.4037 24.2131C89.5337 24.2131 88.7643 24.071 88.0955 23.7869C87.4326 23.4969 86.9118 23.0589 86.533 22.473C86.1542 21.8871 85.9648 21.1413 85.9648 20.2358C85.9648 19.4901 86.0921 18.8538 86.3466 18.3271C86.6011 17.7944 86.9562 17.3594 87.4119 17.022C87.8676 16.6847 88.3974 16.4272 89.001 16.2496C89.6107 16.0721 90.2676 15.9567 90.9719 15.9034C91.7354 15.8442 92.348 15.7732 92.8096 15.6903C93.2772 15.6016 93.6146 15.4802 93.8217 15.3263C94.0289 15.1665 94.1324 14.9564 94.1324 14.696V14.6605C94.1324 14.3054 93.9963 14.0331 93.7241 13.8438C93.4518 13.6544 93.1026 13.5597 92.6765 13.5597C92.2089 13.5597 91.8272 13.6632 91.5312 13.8704C91.2412 14.0716 91.0666 14.3823 91.0074 14.8026H86.4975C86.5567 13.974 86.8201 13.2105 87.2876 12.5121C87.7611 11.8078 88.4506 11.2455 89.3562 10.8253C90.2617 10.3991 91.3921 10.1861 92.7475 10.1861C93.7241 10.1861 94.6 10.3015 95.3753 10.5323C96.1507 10.7572 96.8106 11.0739 97.3551 11.4822C97.8996 11.8847 98.3139 12.3582 98.598 12.9027C98.888 13.4413 99.033 14.0272 99.033 14.6605V24H94.452V22.0824H94.3455C94.0733 22.5914 93.7418 23.0027 93.3512 23.3164C92.9665 23.6301 92.5255 23.858 92.0284 24C91.5371 24.142 90.9956 24.2131 90.4037 24.2131ZM92.0018 21.1236C92.3746 21.1236 92.7238 21.0466 93.0493 20.8928C93.3808 20.7389 93.6501 20.5169 93.8572 20.2269C94.0644 19.9369 94.1679 19.5848 94.1679 19.1705V18.0341C94.0377 18.0874 93.8987 18.1377 93.7507 18.185C93.6086 18.2324 93.4548 18.2768 93.289 18.3182C93.1292 18.3596 92.9576 18.3981 92.7741 18.4336C92.5966 18.4691 92.4101 18.5017 92.2148 18.5312C91.836 18.5904 91.5253 18.6881 91.2826 18.8242C91.0459 18.9544 90.8684 19.1172 90.75 19.3125C90.6375 19.5019 90.5813 19.715 90.5813 19.9517C90.5813 20.3305 90.7145 20.6205 90.9808 20.8217C91.2471 21.023 91.5875 21.1236 92.0018 21.1236ZM106.275 5.81818V24H101.375V5.81818H106.275Z" fill="#333333"/>
<path d="M54.5719 24V5.81818H59.5079V13.169H59.7565L65.2253 5.81818H70.9781L64.8347 13.9148L71.1202 24H65.2253L61.1415 17.1818L59.5079 19.3125V24H54.5719Z" fill="url(#paint0_linear_77_16)"/>
<defs>
<linearGradient id="paint0_linear_77_16" x1="54.84" y1="6.42857" x2="70.1537" y2="24.7412" gradientUnits="userSpaceOnUse">
<stop stop-color="#E4022D"/>
<stop offset="1" stop-color="#333333"/>
</linearGradient>
</defs>
</svg>
